<mxfile host="app.diagrams.net" modified="2024-05-27T07:49:19.197Z" agent="Mozilla/5.0 (Macintosh; Intel Mac OS X 10_15_7) AppleWebKit/537.36 (KHTML, like Gecko) Chrome/125.0.0.0 Safari/537.36 Edg/125.0.0.0" etag="O_zP-iaa92GdU3BKEqu6" version="24.4.8" type="github">
  <diagram id="C5RBs43oDa-KdzZeNtuy" name="Page-1">
    <mxGraphModel dx="1632" dy="605" grid="1" gridSize="10" guides="1" tooltips="1" connect="1" arrows="1" fold="1" page="1" pageScale="1" pageWidth="827" pageHeight="1169" math="0" shadow="0">
      <root>
        <mxCell id="WIyWlLk6GJQsqaUBKTNV-0" />
        <mxCell id="WIyWlLk6GJQsqaUBKTNV-1" parent="WIyWlLk6GJQsqaUBKTNV-0" />
        <mxCell id="sKkCY-q4_aUjuxy-T2T2-13" value="" style="edgeStyle=orthogonalEdgeStyle;rounded=0;orthogonalLoop=1;jettySize=auto;html=1;" parent="WIyWlLk6GJQsqaUBKTNV-1" source="sKkCY-q4_aUjuxy-T2T2-6" target="sKkCY-q4_aUjuxy-T2T2-11" edge="1">
          <mxGeometry relative="1" as="geometry" />
        </mxCell>
        <mxCell id="sKkCY-q4_aUjuxy-T2T2-14" value="No" style="edgeLabel;html=1;align=center;verticalAlign=middle;resizable=0;points=[];" parent="sKkCY-q4_aUjuxy-T2T2-13" vertex="1" connectable="0">
          <mxGeometry x="-0.2062" relative="1" as="geometry">
            <mxPoint as="offset" />
          </mxGeometry>
        </mxCell>
        <mxCell id="sKkCY-q4_aUjuxy-T2T2-18" value="" style="edgeStyle=orthogonalEdgeStyle;rounded=0;orthogonalLoop=1;jettySize=auto;html=1;" parent="WIyWlLk6GJQsqaUBKTNV-1" source="sKkCY-q4_aUjuxy-T2T2-6" target="sKkCY-q4_aUjuxy-T2T2-17" edge="1">
          <mxGeometry relative="1" as="geometry" />
        </mxCell>
        <mxCell id="sKkCY-q4_aUjuxy-T2T2-78" value="Yes" style="edgeLabel;html=1;align=center;verticalAlign=middle;resizable=0;points=[];" parent="sKkCY-q4_aUjuxy-T2T2-18" vertex="1" connectable="0">
          <mxGeometry x="-0.2981" relative="1" as="geometry">
            <mxPoint as="offset" />
          </mxGeometry>
        </mxCell>
        <mxCell id="sKkCY-q4_aUjuxy-T2T2-6" value="&lt;div&gt;&lt;span style=&quot;background-color: initial;&quot;&gt;If&lt;/span&gt;&lt;/div&gt;&lt;div&gt;&lt;span style=&quot;background-color: initial;&quot;&gt;(Current != 0 mA)&lt;/span&gt;&lt;/div&gt;&lt;div&gt;&lt;span style=&quot;background-color: initial;&quot;&gt;AND&lt;/span&gt;&lt;/div&gt;&lt;div&gt;&lt;span style=&quot;background-color: initial;&quot;&gt;(Status == Charging)?&lt;/span&gt;&lt;/div&gt;" style="rhombus;whiteSpace=wrap;html=1;direction=west;" parent="WIyWlLk6GJQsqaUBKTNV-1" vertex="1">
          <mxGeometry x="463.44" y="302" width="170" height="160" as="geometry" />
        </mxCell>
        <mxCell id="sKkCY-q4_aUjuxy-T2T2-47" value="" style="edgeStyle=orthogonalEdgeStyle;rounded=0;orthogonalLoop=1;jettySize=auto;html=1;" parent="WIyWlLk6GJQsqaUBKTNV-1" source="sKkCY-q4_aUjuxy-T2T2-11" target="sKkCY-q4_aUjuxy-T2T2-46" edge="1">
          <mxGeometry relative="1" as="geometry" />
        </mxCell>
        <mxCell id="sKkCY-q4_aUjuxy-T2T2-62" value="Yes" style="edgeLabel;html=1;align=center;verticalAlign=middle;resizable=0;points=[];" parent="sKkCY-q4_aUjuxy-T2T2-47" vertex="1" connectable="0">
          <mxGeometry x="-0.1636" y="2" relative="1" as="geometry">
            <mxPoint as="offset" />
          </mxGeometry>
        </mxCell>
        <mxCell id="sKkCY-q4_aUjuxy-T2T2-11" value="&lt;div&gt;If&lt;/div&gt;(Current == 0 mA)&lt;div&gt;AND&lt;/div&gt;&lt;div&gt;(Status == Ready)?&lt;br&gt;&lt;/div&gt;" style="rhombus;whiteSpace=wrap;html=1;" parent="WIyWlLk6GJQsqaUBKTNV-1" vertex="1">
          <mxGeometry x="155" y="309.5" width="157.5" height="145" as="geometry" />
        </mxCell>
        <mxCell id="sKkCY-q4_aUjuxy-T2T2-20" value="Yes" style="edgeStyle=orthogonalEdgeStyle;rounded=0;orthogonalLoop=1;jettySize=auto;html=1;" parent="WIyWlLk6GJQsqaUBKTNV-1" source="sKkCY-q4_aUjuxy-T2T2-17" target="sKkCY-q4_aUjuxy-T2T2-19" edge="1">
          <mxGeometry relative="1" as="geometry" />
        </mxCell>
        <mxCell id="sKkCY-q4_aUjuxy-T2T2-44" value="" style="edgeStyle=orthogonalEdgeStyle;rounded=0;orthogonalLoop=1;jettySize=auto;html=1;entryX=0.5;entryY=0;entryDx=0;entryDy=0;" parent="WIyWlLk6GJQsqaUBKTNV-1" source="sKkCY-q4_aUjuxy-T2T2-17" target="sKkCY-q4_aUjuxy-T2T2-48" edge="1">
          <mxGeometry relative="1" as="geometry">
            <mxPoint x="950" y="937" as="targetPoint" />
          </mxGeometry>
        </mxCell>
        <mxCell id="sKkCY-q4_aUjuxy-T2T2-45" value="No" style="edgeLabel;html=1;align=center;verticalAlign=middle;resizable=0;points=[];" parent="sKkCY-q4_aUjuxy-T2T2-44" vertex="1" connectable="0">
          <mxGeometry x="-0.6485" y="1" relative="1" as="geometry">
            <mxPoint as="offset" />
          </mxGeometry>
        </mxCell>
        <mxCell id="sKkCY-q4_aUjuxy-T2T2-17" value="&lt;div style=&quot;&quot;&gt;If NOT&lt;br&gt;&lt;/div&gt;&lt;div style=&quot;&quot;&gt;&lt;span style=&quot;background-color: initial;&quot;&gt;(RelativeCharge &amp;gt; previousRelativeCharge)?&lt;/span&gt;&lt;/div&gt;" style="rhombus;whiteSpace=wrap;html=1;align=center;" parent="WIyWlLk6GJQsqaUBKTNV-1" vertex="1">
          <mxGeometry x="448.28" y="547" width="200.31" height="140" as="geometry" />
        </mxCell>
        <mxCell id="sKkCY-q4_aUjuxy-T2T2-22" value="" style="edgeStyle=orthogonalEdgeStyle;rounded=0;orthogonalLoop=1;jettySize=auto;html=1;" parent="WIyWlLk6GJQsqaUBKTNV-1" source="sKkCY-q4_aUjuxy-T2T2-19" target="sKkCY-q4_aUjuxy-T2T2-21" edge="1">
          <mxGeometry relative="1" as="geometry" />
        </mxCell>
        <mxCell id="sKkCY-q4_aUjuxy-T2T2-19" value="Count=0" style="whiteSpace=wrap;html=1;" parent="WIyWlLk6GJQsqaUBKTNV-1" vertex="1">
          <mxGeometry x="507.81" y="757" width="81.25" height="20" as="geometry" />
        </mxCell>
        <mxCell id="sKkCY-q4_aUjuxy-T2T2-58" value="" style="edgeStyle=orthogonalEdgeStyle;rounded=0;orthogonalLoop=1;jettySize=auto;html=1;" parent="WIyWlLk6GJQsqaUBKTNV-1" source="sKkCY-q4_aUjuxy-T2T2-21" target="sKkCY-q4_aUjuxy-T2T2-57" edge="1">
          <mxGeometry relative="1" as="geometry" />
        </mxCell>
        <mxCell id="sKkCY-q4_aUjuxy-T2T2-21" value="&lt;div&gt;wait 15 sec&lt;/div&gt;" style="whiteSpace=wrap;html=1;" parent="WIyWlLk6GJQsqaUBKTNV-1" vertex="1">
          <mxGeometry x="488.44" y="817" width="120" height="20" as="geometry" />
        </mxCell>
        <mxCell id="sKkCY-q4_aUjuxy-T2T2-33" value="" style="edgeStyle=orthogonalEdgeStyle;rounded=0;orthogonalLoop=1;jettySize=auto;html=1;entryX=0;entryY=0.5;entryDx=0;entryDy=0;" parent="WIyWlLk6GJQsqaUBKTNV-1" source="sKkCY-q4_aUjuxy-T2T2-25" target="sKkCY-q4_aUjuxy-T2T2-32" edge="1">
          <mxGeometry relative="1" as="geometry" />
        </mxCell>
        <mxCell id="sKkCY-q4_aUjuxy-T2T2-34" value="Yes" style="edgeLabel;html=1;align=center;verticalAlign=middle;resizable=0;points=[];" parent="sKkCY-q4_aUjuxy-T2T2-33" vertex="1" connectable="0">
          <mxGeometry x="-0.1065" y="2" relative="1" as="geometry">
            <mxPoint as="offset" />
          </mxGeometry>
        </mxCell>
        <mxCell id="sKkCY-q4_aUjuxy-T2T2-25" value="(Count=5)&lt;div&gt;&lt;span style=&quot;background-color: initial;&quot;&gt;OR&lt;/span&gt;&lt;div&gt;(RelativeCharge &amp;gt; previousRelativeCharge)&lt;br&gt;&lt;/div&gt;&lt;/div&gt;" style="rhombus;whiteSpace=wrap;html=1;" parent="WIyWlLk6GJQsqaUBKTNV-1" vertex="1">
          <mxGeometry x="449.37" y="972" width="198.14" height="150" as="geometry" />
        </mxCell>
        <mxCell id="sKkCY-q4_aUjuxy-T2T2-49" value="" style="edgeStyle=orthogonalEdgeStyle;rounded=0;orthogonalLoop=1;jettySize=auto;html=1;" parent="WIyWlLk6GJQsqaUBKTNV-1" source="sKkCY-q4_aUjuxy-T2T2-32" target="sKkCY-q4_aUjuxy-T2T2-48" edge="1">
          <mxGeometry relative="1" as="geometry" />
        </mxCell>
        <mxCell id="sKkCY-q4_aUjuxy-T2T2-50" value="No" style="edgeLabel;html=1;align=center;verticalAlign=middle;resizable=0;points=[];" parent="sKkCY-q4_aUjuxy-T2T2-49" vertex="1" connectable="0">
          <mxGeometry x="-0.1343" y="1" relative="1" as="geometry">
            <mxPoint as="offset" />
          </mxGeometry>
        </mxCell>
        <mxCell id="sKkCY-q4_aUjuxy-T2T2-52" value="" style="edgeStyle=orthogonalEdgeStyle;rounded=0;orthogonalLoop=1;jettySize=auto;html=1;" parent="WIyWlLk6GJQsqaUBKTNV-1" source="sKkCY-q4_aUjuxy-T2T2-32" target="sKkCY-q4_aUjuxy-T2T2-51" edge="1">
          <mxGeometry relative="1" as="geometry" />
        </mxCell>
        <mxCell id="sKkCY-q4_aUjuxy-T2T2-54" value="Yes" style="edgeLabel;html=1;align=center;verticalAlign=middle;resizable=0;points=[];" parent="sKkCY-q4_aUjuxy-T2T2-52" vertex="1" connectable="0">
          <mxGeometry x="0.1486" y="2" relative="1" as="geometry">
            <mxPoint as="offset" />
          </mxGeometry>
        </mxCell>
        <mxCell id="sKkCY-q4_aUjuxy-T2T2-32" value="&lt;div&gt;If NOT&lt;br&gt;&lt;/div&gt;&lt;div&gt;&lt;span style=&quot;background-color: initial;&quot;&gt;(RelativeCharge &amp;gt; previousRelativeCharge)&lt;/span&gt;&lt;/div&gt;" style="rhombus;whiteSpace=wrap;html=1;" parent="WIyWlLk6GJQsqaUBKTNV-1" vertex="1">
          <mxGeometry x="731.26" y="847" width="198.74" height="125" as="geometry" />
        </mxCell>
        <mxCell id="sKkCY-q4_aUjuxy-T2T2-61" value="Yes" style="edgeStyle=orthogonalEdgeStyle;rounded=0;orthogonalLoop=1;jettySize=auto;html=1;" parent="WIyWlLk6GJQsqaUBKTNV-1" source="sKkCY-q4_aUjuxy-T2T2-46" target="sKkCY-q4_aUjuxy-T2T2-60" edge="1">
          <mxGeometry relative="1" as="geometry" />
        </mxCell>
        <mxCell id="sKkCY-q4_aUjuxy-T2T2-66" value="" style="edgeStyle=orthogonalEdgeStyle;rounded=0;orthogonalLoop=1;jettySize=auto;html=1;" parent="WIyWlLk6GJQsqaUBKTNV-1" source="sKkCY-q4_aUjuxy-T2T2-46" target="sKkCY-q4_aUjuxy-T2T2-65" edge="1">
          <mxGeometry relative="1" as="geometry" />
        </mxCell>
        <mxCell id="sKkCY-q4_aUjuxy-T2T2-67" value="No" style="edgeLabel;html=1;align=center;verticalAlign=middle;resizable=0;points=[];" parent="sKkCY-q4_aUjuxy-T2T2-66" vertex="1" connectable="0">
          <mxGeometry x="-0.3126" relative="1" as="geometry">
            <mxPoint as="offset" />
          </mxGeometry>
        </mxCell>
        <mxCell id="sKkCY-q4_aUjuxy-T2T2-46" value="If&lt;div&gt;(SafetyStatus == 0x0000 0008)?&lt;/div&gt;" style="rhombus;whiteSpace=wrap;html=1;" parent="WIyWlLk6GJQsqaUBKTNV-1" vertex="1">
          <mxGeometry x="120.63" y="557" width="226.25" height="80" as="geometry" />
        </mxCell>
        <mxCell id="sKkCY-q4_aUjuxy-T2T2-48" value="previousRelativeCharge = RelativeCharge" style="whiteSpace=wrap;html=1;" parent="WIyWlLk6GJQsqaUBKTNV-1" vertex="1">
          <mxGeometry x="880" y="697" width="180" height="60" as="geometry" />
        </mxCell>
        <mxCell id="sKkCY-q4_aUjuxy-T2T2-51" value="&lt;div&gt;ERROR = &quot;BATTERY CHARGE ISSUE: NOT CHARGING&quot;&lt;br&gt;&lt;/div&gt;&lt;div&gt;PCM_FAIL = true&lt;/div&gt;" style="whiteSpace=wrap;html=1;" parent="WIyWlLk6GJQsqaUBKTNV-1" vertex="1">
          <mxGeometry x="741.26" y="1040" width="318.74" height="60" as="geometry" />
        </mxCell>
        <mxCell id="sKkCY-q4_aUjuxy-T2T2-59" value="" style="edgeStyle=orthogonalEdgeStyle;rounded=0;orthogonalLoop=1;jettySize=auto;html=1;" parent="WIyWlLk6GJQsqaUBKTNV-1" source="sKkCY-q4_aUjuxy-T2T2-57" target="sKkCY-q4_aUjuxy-T2T2-25" edge="1">
          <mxGeometry relative="1" as="geometry" />
        </mxCell>
        <mxCell id="sKkCY-q4_aUjuxy-T2T2-57" value="system battery show (Get&amp;nbsp;&lt;span style=&quot;background-color: initial;&quot;&gt;RelativeCharge)&lt;/span&gt;" style="rounded=0;whiteSpace=wrap;html=1;" parent="WIyWlLk6GJQsqaUBKTNV-1" vertex="1">
          <mxGeometry x="488.44" y="867" width="120" height="60" as="geometry" />
        </mxCell>
        <mxCell id="sKkCY-q4_aUjuxy-T2T2-60" value="&lt;div&gt;ERROR = &quot;BATTERY CHARGE ISSUE: HIGH CURRENT&quot;&lt;br&gt;&lt;/div&gt;&lt;div&gt;PCM_FAIL = true&lt;/div&gt;" style="whiteSpace=wrap;html=1;" parent="WIyWlLk6GJQsqaUBKTNV-1" vertex="1">
          <mxGeometry x="74.38" y="677" width="318.74" height="60" as="geometry" />
        </mxCell>
        <mxCell id="sKkCY-q4_aUjuxy-T2T2-69" value="Yes" style="edgeStyle=orthogonalEdgeStyle;rounded=0;orthogonalLoop=1;jettySize=auto;html=1;" parent="WIyWlLk6GJQsqaUBKTNV-1" source="sKkCY-q4_aUjuxy-T2T2-65" target="sKkCY-q4_aUjuxy-T2T2-68" edge="1">
          <mxGeometry relative="1" as="geometry" />
        </mxCell>
        <mxCell id="sKkCY-q4_aUjuxy-T2T2-83" value="" style="edgeStyle=orthogonalEdgeStyle;rounded=0;orthogonalLoop=1;jettySize=auto;html=1;" parent="WIyWlLk6GJQsqaUBKTNV-1" source="sKkCY-q4_aUjuxy-T2T2-65" target="sKkCY-q4_aUjuxy-T2T2-82" edge="1">
          <mxGeometry relative="1" as="geometry" />
        </mxCell>
        <mxCell id="07RVPBnmIZMeijGdiE55-9" value="No" style="edgeLabel;html=1;align=center;verticalAlign=middle;resizable=0;points=[];" vertex="1" connectable="0" parent="sKkCY-q4_aUjuxy-T2T2-83">
          <mxGeometry x="0.3349" y="1" relative="1" as="geometry">
            <mxPoint as="offset" />
          </mxGeometry>
        </mxCell>
        <mxCell id="sKkCY-q4_aUjuxy-T2T2-65" value="&lt;div&gt;If&lt;/div&gt;NOT(SafetyStatus == 0x0000 0008) AND NOT(SafertStatus == 0x0000 0000)" style="rhombus;whiteSpace=wrap;html=1;" parent="WIyWlLk6GJQsqaUBKTNV-1" vertex="1">
          <mxGeometry x="-340" y="552" width="307.51" height="90" as="geometry" />
        </mxCell>
        <mxCell id="sKkCY-q4_aUjuxy-T2T2-68" value="&lt;div&gt;ERROR = &quot;BATTERY CHARGE ISSUE: OTHER&quot;&lt;br&gt;&lt;/div&gt;&lt;div&gt;PCM_FAIL = true&lt;/div&gt;" style="whiteSpace=wrap;html=1;" parent="WIyWlLk6GJQsqaUBKTNV-1" vertex="1">
          <mxGeometry x="-326.24" y="677" width="280" height="60" as="geometry" />
        </mxCell>
        <mxCell id="sKkCY-q4_aUjuxy-T2T2-71" value="" style="edgeStyle=orthogonalEdgeStyle;rounded=0;orthogonalLoop=1;jettySize=auto;html=1;" parent="WIyWlLk6GJQsqaUBKTNV-1" source="sKkCY-q4_aUjuxy-T2T2-70" target="sKkCY-q4_aUjuxy-T2T2-6" edge="1">
          <mxGeometry relative="1" as="geometry" />
        </mxCell>
        <mxCell id="sKkCY-q4_aUjuxy-T2T2-70" value="system battery show&lt;div&gt;(Get&amp;nbsp;Current)&lt;br&gt;(Get Status)&lt;/div&gt;&lt;div&gt;(Get&amp;nbsp;RelativeCharge)&lt;/div&gt;" style="rounded=0;whiteSpace=wrap;html=1;" parent="WIyWlLk6GJQsqaUBKTNV-1" vertex="1">
          <mxGeometry x="488.44" y="197" width="120" height="60" as="geometry" />
        </mxCell>
        <mxCell id="sKkCY-q4_aUjuxy-T2T2-73" value="" style="edgeStyle=orthogonalEdgeStyle;rounded=0;orthogonalLoop=1;jettySize=auto;html=1;" parent="WIyWlLk6GJQsqaUBKTNV-1" source="sKkCY-q4_aUjuxy-T2T2-72" target="sKkCY-q4_aUjuxy-T2T2-70" edge="1">
          <mxGeometry relative="1" as="geometry" />
        </mxCell>
        <mxCell id="sKkCY-q4_aUjuxy-T2T2-72" value="Wait 60 seconds" style="rounded=0;whiteSpace=wrap;html=1;" parent="WIyWlLk6GJQsqaUBKTNV-1" vertex="1">
          <mxGeometry x="500" y="147" width="96.88" height="20" as="geometry" />
        </mxCell>
        <mxCell id="sKkCY-q4_aUjuxy-T2T2-76" value="" style="edgeStyle=orthogonalEdgeStyle;rounded=0;orthogonalLoop=1;jettySize=auto;html=1;" parent="WIyWlLk6GJQsqaUBKTNV-1" source="sKkCY-q4_aUjuxy-T2T2-74" target="sKkCY-q4_aUjuxy-T2T2-72" edge="1">
          <mxGeometry relative="1" as="geometry" />
        </mxCell>
        <mxCell id="sKkCY-q4_aUjuxy-T2T2-74" value="&lt;div&gt;previousRelativeCharge = 0&lt;/div&gt;&lt;div&gt;PCM_FAIL = false&lt;/div&gt;&lt;div&gt;ERROR = &quot;&quot;&lt;/div&gt;" style="rounded=0;whiteSpace=wrap;html=1;" parent="WIyWlLk6GJQsqaUBKTNV-1" vertex="1">
          <mxGeometry x="468.83" y="47" width="159.22" height="60" as="geometry" />
        </mxCell>
        <mxCell id="sKkCY-q4_aUjuxy-T2T2-79" value="" style="endArrow=classic;html=1;rounded=0;entryX=0;entryY=0.5;entryDx=0;entryDy=0;exitX=0;exitY=0.5;exitDx=0;exitDy=0;" parent="WIyWlLk6GJQsqaUBKTNV-1" source="sKkCY-q4_aUjuxy-T2T2-25" target="sKkCY-q4_aUjuxy-T2T2-21" edge="1">
          <mxGeometry width="50" height="50" relative="1" as="geometry">
            <mxPoint x="420" y="1087" as="sourcePoint" />
            <mxPoint x="450" y="827" as="targetPoint" />
            <Array as="points">
              <mxPoint x="400" y="1047" />
              <mxPoint x="400" y="827" />
            </Array>
          </mxGeometry>
        </mxCell>
        <mxCell id="sKkCY-q4_aUjuxy-T2T2-80" value="No" style="edgeLabel;html=1;align=center;verticalAlign=middle;resizable=0;points=[];" parent="sKkCY-q4_aUjuxy-T2T2-79" vertex="1" connectable="0">
          <mxGeometry x="-0.2109" y="-2" relative="1" as="geometry">
            <mxPoint as="offset" />
          </mxGeometry>
        </mxCell>
        <mxCell id="sKkCY-q4_aUjuxy-T2T2-90" value="" style="edgeStyle=orthogonalEdgeStyle;rounded=0;orthogonalLoop=1;jettySize=auto;html=1;" parent="WIyWlLk6GJQsqaUBKTNV-1" source="sKkCY-q4_aUjuxy-T2T2-82" target="sKkCY-q4_aUjuxy-T2T2-88" edge="1">
          <mxGeometry relative="1" as="geometry" />
        </mxCell>
        <mxCell id="sKkCY-q4_aUjuxy-T2T2-91" value="Yes" style="edgeLabel;html=1;align=center;verticalAlign=middle;resizable=0;points=[];" parent="sKkCY-q4_aUjuxy-T2T2-90" vertex="1" connectable="0">
          <mxGeometry x="-0.1114" relative="1" as="geometry">
            <mxPoint as="offset" />
          </mxGeometry>
        </mxCell>
        <mxCell id="sKkCY-q4_aUjuxy-T2T2-82" value="(PCM_FAIL == false)&lt;div&gt;OR&lt;/div&gt;&lt;div&gt;(RelativeCharge is == 75%)&lt;/div&gt;" style="rhombus;whiteSpace=wrap;html=1;" parent="WIyWlLk6GJQsqaUBKTNV-1" vertex="1">
          <mxGeometry x="-285.3" y="337" width="198.12" height="140" as="geometry" />
        </mxCell>
        <mxCell id="sKkCY-q4_aUjuxy-T2T2-85" value="" style="endArrow=classic;html=1;rounded=0;exitX=0.5;exitY=0;exitDx=0;exitDy=0;entryX=0;entryY=0.5;entryDx=0;entryDy=0;" parent="WIyWlLk6GJQsqaUBKTNV-1" source="sKkCY-q4_aUjuxy-T2T2-82" target="sKkCY-q4_aUjuxy-T2T2-72" edge="1">
          <mxGeometry width="50" height="50" relative="1" as="geometry">
            <mxPoint x="160" y="317" as="sourcePoint" />
            <mxPoint x="210" y="267" as="targetPoint" />
            <Array as="points">
              <mxPoint x="-186" y="160" />
            </Array>
          </mxGeometry>
        </mxCell>
        <mxCell id="sKkCY-q4_aUjuxy-T2T2-86" value="No" style="edgeLabel;html=1;align=center;verticalAlign=middle;resizable=0;points=[];" parent="sKkCY-q4_aUjuxy-T2T2-85" vertex="1" connectable="0">
          <mxGeometry x="0.0526" y="1" relative="1" as="geometry">
            <mxPoint x="1" as="offset" />
          </mxGeometry>
        </mxCell>
        <mxCell id="sKkCY-q4_aUjuxy-T2T2-89" value="" style="edgeStyle=orthogonalEdgeStyle;rounded=0;orthogonalLoop=1;jettySize=auto;html=1;" parent="WIyWlLk6GJQsqaUBKTNV-1" source="sKkCY-q4_aUjuxy-T2T2-87" target="sKkCY-q4_aUjuxy-T2T2-74" edge="1">
          <mxGeometry relative="1" as="geometry" />
        </mxCell>
        <mxCell id="sKkCY-q4_aUjuxy-T2T2-87" value="Start" style="ellipse;whiteSpace=wrap;html=1;" parent="WIyWlLk6GJQsqaUBKTNV-1" vertex="1">
          <mxGeometry x="320" y="52" width="80" height="50" as="geometry" />
        </mxCell>
        <mxCell id="sKkCY-q4_aUjuxy-T2T2-88" value="Exit" style="ellipse;whiteSpace=wrap;html=1;" parent="WIyWlLk6GJQsqaUBKTNV-1" vertex="1">
          <mxGeometry x="-78" y="240" width="77.51" height="50" as="geometry" />
        </mxCell>
        <mxCell id="07RVPBnmIZMeijGdiE55-0" value="Battery Charging" style="shape=note;whiteSpace=wrap;html=1;backgroundOutline=1;darkOpacity=0.05;size=16;" vertex="1" parent="WIyWlLk6GJQsqaUBKTNV-1">
          <mxGeometry x="660" y="345.5" width="100" height="73" as="geometry" />
        </mxCell>
        <mxCell id="07RVPBnmIZMeijGdiE55-1" value="" style="endArrow=none;dashed=1;html=1;rounded=0;entryX=0;entryY=0.5;entryDx=0;entryDy=0;entryPerimeter=0;exitX=0;exitY=0.5;exitDx=0;exitDy=0;" edge="1" parent="WIyWlLk6GJQsqaUBKTNV-1" source="sKkCY-q4_aUjuxy-T2T2-6" target="07RVPBnmIZMeijGdiE55-0">
          <mxGeometry width="50" height="50" relative="1" as="geometry">
            <mxPoint x="633.44" y="520" as="sourcePoint" />
            <mxPoint x="683.44" y="470" as="targetPoint" />
          </mxGeometry>
        </mxCell>
        <mxCell id="07RVPBnmIZMeijGdiE55-2" value="Battery Not Charging" style="shape=note;whiteSpace=wrap;html=1;backgroundOutline=1;darkOpacity=0.05;size=16;" vertex="1" parent="WIyWlLk6GJQsqaUBKTNV-1">
          <mxGeometry x="183.75" y="197" width="100" height="73" as="geometry" />
        </mxCell>
        <mxCell id="07RVPBnmIZMeijGdiE55-3" value="" style="endArrow=none;dashed=1;html=1;rounded=0;entryX=0.5;entryY=0;entryDx=0;entryDy=0;exitX=0.5;exitY=1;exitDx=0;exitDy=0;exitPerimeter=0;" edge="1" parent="WIyWlLk6GJQsqaUBKTNV-1" source="07RVPBnmIZMeijGdiE55-2" target="sKkCY-q4_aUjuxy-T2T2-11">
          <mxGeometry width="50" height="50" relative="1" as="geometry">
            <mxPoint x="360" y="290" as="sourcePoint" />
            <mxPoint x="120" y="320" as="targetPoint" />
          </mxGeometry>
        </mxCell>
        <mxCell id="07RVPBnmIZMeijGdiE55-8" value="" style="endArrow=none;html=1;rounded=0;entryX=0;entryY=0.5;entryDx=0;entryDy=0;" edge="1" parent="WIyWlLk6GJQsqaUBKTNV-1" target="sKkCY-q4_aUjuxy-T2T2-11">
          <mxGeometry width="50" height="50" relative="1" as="geometry">
            <mxPoint x="-187" y="520" as="sourcePoint" />
            <mxPoint x="150" y="410" as="targetPoint" />
            <Array as="points">
              <mxPoint x="43" y="520" />
              <mxPoint x="43" y="382" />
            </Array>
          </mxGeometry>
        </mxCell>
      </root>
    </mxGraphModel>
  </diagram>
</mxfile>
